<svg xmlns="http://www.w3.org/2000/svg" viewBox="0 0 512 512">
  <rect width="512" height="512" rx="96" fill="#cf392f"/>
  <path d="M269 74c15 59-22 91-46 124-23 31-35 59-24 96 8 28 32 48 61 48 42 0 72-32 72-74 0-41-25-69-48-94 65 22 118 83 118 158 0 96-71 166-164 166S74 428 74 336c0-65 35-112 76-157 33-36 70-77 74-130 25 7 39 15 45 25Z" fill="#ffb02e"/>
  <path d="M270 204c13 37-11 58-27 79-15 19-22 38-15 60 6 20 23 34 44 34 30 0 51-23 51-53 0-25-13-44-29-62 43 17 73 58 73 104 0 63-47 110-110 110s-109-44-109-106c0-45 26-77 54-107 24-26 48-51 51-89 9 8 14 17 17 30Z" fill="#ffe06a"/>
  <path d="M262 306c8 22-7 36-18 50-9 12-13 24-8 38 4 12 14 21 27 21 19 0 32-15 32-33 0-16-9-28-18-39 27 12 45 37 45 66 0 39-29 68-68 68s-68-27-68-66c0-28 16-48 34-67 14-15 30-32 32-55 5 5 8 10 10 17Z" fill="#fff4b0"/>
</svg>
